<svg width="236" height="149" viewBox="0 0 236 149" fill="none" xmlns="http://www.w3.org/2000/svg">
<path d="M232.455 61.1044V42.7485C232.455 26.1657 223.482 21.5767 215.762 21.5767C207.938 21.5767 201.574 27.0001 199.279 33.7792V0.822128C196.775 2.90802 185.194 8.74851 178.83 9.37428C181.751 10.9387 181.751 16.6749 181.751 22.0982V61.1044C181.751 66.4234 181.647 72.1596 178.83 73.9326H202.2C199.383 72.4725 199.279 66.4234 199.279 61.1044V47.9632C199.279 35.3436 203.139 27.3129 208.251 27.3129C213.467 27.3129 215.136 34.0921 215.136 39.8283V61.1044C215.136 66.4234 214.823 72.1596 212.006 73.9326H235.48C232.559 72.4725 232.455 66.4234 232.455 61.1044Z" fill="#0066FF"/>
<path d="M78.0353 61.2086V14.9019C78.0353 9.47857 78.2439 3.84666 80.9564 1.96936L58.839 1.96936L43.2942 53.4909L27.3321 1.96936L4.17141 1.96936C6.98825 3.42948 7.09258 9.47857 7.09258 14.9019L7.09258 32.2148C7.09258 62.4602 5.52766 69.135 0.519943 73.9326H20.5508C14.7085 65.589 10.0137 35.2393 9.38778 9.37427L30.3576 73.9326H40.5817L59.8823 10.4172L59.8823 61.2086C59.8823 66.632 59.6736 72.1596 56.8568 73.9326H80.9564C78.1396 72.4725 78.0353 66.632 78.0353 61.2086Z" fill="#0066FF"/>
<path fill-rule="evenodd" clip-rule="evenodd" d="M112.489 34.3007C112.489 39.2106 106.94 40.6747 100.508 42.3721C91.6376 44.7128 81.086 47.4972 81.086 60.3743C81.086 69.6565 87.3457 74.6626 95.0659 74.6626C102.786 74.6626 109.359 70.178 112.489 63.816V73.9326H132.937C129.911 72.4725 129.807 66.4234 129.807 61.1044V43.6872C129.807 27.3129 120.939 21.2639 108.107 21.2639C103.729 21.2639 99.3051 22.6698 95.2486 23.959C90.6056 25.4347 86.4437 26.7575 83.3812 25.6442L96.3179 41.497C98.0914 30.9632 100.595 22.9326 105.812 22.9326C109.88 22.9326 112.489 28.8773 112.489 34.3007ZM112.489 38.681V57.3498C112.489 63.0859 108.316 66.4234 104.56 66.4234C101.639 66.4234 98.8217 64.0246 98.8217 58.7056C98.8217 51.2371 103.099 47.6398 107.099 44.2763C109.188 42.5201 111.2 40.8276 112.489 38.681Z" fill="#0066FF"/>
<path d="M177.462 23.9755L167.864 39.3068C164.734 31.0675 157.431 24.7056 147.103 24.7056C142.512 24.7056 139.8 26.6872 139.8 28.6688C139.8 32.4581 146.003 34.3521 153.456 36.6277C164.671 40.0515 178.714 44.339 178.714 57.2455C178.714 66.2148 173.08 74.6626 155.553 74.6626C138.548 74.6626 131.975 67.8835 131.975 61.3129C131.975 58.2884 133.54 55.2639 136.148 53.178C141.677 63.5031 158.266 70.2823 166.09 70.2823C170.576 70.2823 172.558 68.3007 172.558 66.1105C172.558 61.4134 165.086 58.9404 156.533 56.1095C151.602 54.4775 146.312 52.7266 141.886 50.362C136.461 47.5461 132.81 43.0614 132.81 37.5338C132.81 26.6872 141.782 21.5767 153.466 21.5767C159.045 21.5767 163.998 22.6812 168.018 23.5777C170.764 24.1902 173.075 24.7056 174.854 24.7056C175.897 24.7056 176.732 24.497 177.462 23.9755Z" fill="#0066FF"/>
<path d="M113.269 110.822L1.78157 110.822L1.78157 100.822L113.269 100.822V110.822Z" fill="#0066FF"/>
<path d="M177.033 78.2122V119.274C177.033 124.721 177.242 130.797 180.059 132.054H159.71V121.579C157.206 128.911 150.945 132.787 143.223 132.787C135.396 132.787 126.317 128.073 126.317 111.418V100.315C126.317 94.8675 126.317 88.2682 123.396 86.697C129.865 86.0685 141.449 80.2025 143.849 78.2122V114.456C143.849 120.322 145.518 127.759 150.527 127.759C155.536 127.759 159.606 119.903 159.606 107.123L159.71 99.4765C159.71 94.0295 159.71 88.2682 156.58 86.697C163.05 86.0685 174.633 80.2025 177.033 78.2122Z" fill="#0066FF"/>
<path fill-rule="evenodd" clip-rule="evenodd" d="M217.993 79.4692C227.281 79.4692 235.838 86.9065 235.838 106.076C235.838 125.35 227.489 132.787 217.054 132.787C210.271 132.787 205.054 128.178 202.236 120.427V135.511C202.236 140.958 202.34 147.033 205.262 148.5H181.783C184.6 146.614 184.913 140.958 184.913 135.511V99.4765C184.913 94.0295 184.913 88.2682 181.783 86.697C188.253 86.0685 199.836 80.2025 202.236 78.2122V91.8298C205.054 84.0782 210.584 79.4692 217.993 79.4692ZM211.106 85.021C207.036 85.021 202.653 93.2963 202.653 106.076C202.653 118.96 207.036 127.235 211.106 127.235C214.758 127.235 218.098 121.055 218.098 106.076C218.098 91.2013 214.758 85.021 211.106 85.021Z" fill="#0066FF"/>
</svg>
