<svg width="236" height="149" viewBox="0 0 236 149" fill="none" xmlns="http://www.w3.org/2000/svg">
<path d="M78.0981 61.1504L78.0981 14.6413C78.0981 9.19428 78.3068 3.53777 81.02 1.65226L58.8972 1.65226L43.3485 53.3989L27.3825 1.65226L4.21611 1.65226C7.03365 3.11876 7.138 9.19428 7.138 14.6413L7.138 32.0298C7.138 62.4074 5.5727 69.1114 0.563749 73.9299L20.5996 73.9299C14.7558 65.5499 10.0599 35.0676 9.43377 9.08953L30.4087 73.9299L40.6354 73.9299L59.9407 10.137L59.9407 61.1504C59.9407 66.5974 59.732 72.1492 56.9144 73.9299L81.02 73.9299C78.2025 72.4634 78.0981 66.5974 78.0981 61.1504Z" fill="#0066FF"/>
<path d="M112.56 34.1248C112.56 45.8569 81.1496 38.0006 81.1496 60.3124C81.1496 69.6352 87.4108 74.6632 95.133 74.6632C102.855 74.6632 109.429 70.1589 112.56 63.7692L112.56 73.9299L133.013 73.9299C129.987 72.4634 129.883 66.3879 129.883 61.0457L129.883 43.5524C129.883 27.1066 121.013 21.0311 108.177 21.0311C98.7853 21.0311 89.1848 27.5256 83.4454 25.4306L96.3852 41.3526C98.1592 30.7728 100.664 22.7071 105.881 22.7071C109.951 22.7071 112.56 28.6778 112.56 34.1248ZM112.56 38.5244L112.56 57.2747C112.56 63.0359 108.386 66.3879 104.629 66.3879C101.707 66.3879 98.8897 63.9787 98.8897 58.6364C98.8897 47.2186 108.803 44.8094 112.56 38.5244Z" fill="#0066FF"/>
<path d="M167.949 39.1529L177.549 23.7546C176.819 24.2783 175.984 24.4878 174.94 24.4878C170.557 24.4878 162.94 21.3453 153.548 21.3453C141.86 21.3453 132.886 26.4781 132.886 37.3721C132.886 42.9239 136.538 47.4281 141.965 50.2564C154.07 56.7509 172.645 58.6364 172.645 66.0737C172.645 68.2734 170.662 70.2637 166.175 70.2637C158.348 70.2637 141.756 63.4549 136.225 53.0846C133.616 55.1797 132.051 58.2174 132.051 61.2552C132.051 67.8544 138.625 74.6632 155.635 74.6632C173.166 74.6632 178.801 66.1784 178.801 57.1699C178.801 35.5914 139.878 38.0006 139.878 28.4683C139.878 26.4781 142.591 24.4878 147.182 24.4878C157.513 24.4878 164.818 30.8776 167.949 39.1529Z" fill="#0066FF"/>
<path d="M232.555 61.0457L232.555 42.6096C232.555 25.9543 223.581 21.3453 215.859 21.3453C208.032 21.3453 201.667 26.7923 199.371 33.6011L199.371 0.500015C196.867 2.59502 185.283 8.46104 178.918 9.08954C181.84 10.6608 181.84 16.4221 181.84 21.8691L181.84 61.0457C181.84 66.3879 181.735 72.1492 178.918 73.9299L202.293 73.9299C199.476 72.4634 199.371 66.3879 199.371 61.0457L199.371 47.8471C199.371 35.1724 203.232 27.1066 208.346 27.1066C213.563 27.1066 215.233 33.9153 215.233 39.6766L215.233 61.0457C215.233 66.3879 214.92 72.1492 212.102 73.9299L235.582 73.9299C232.66 72.4634 232.555 66.3879 232.555 61.0457Z" fill="#0066FF"/>
<path fill-rule="evenodd" clip-rule="evenodd" d="M33.1946 110.98L0.676391 110.98L0.676392 100.937L33.1946 100.937L33.1946 110.98Z" fill="#0066FF"/>
<path d="M96.5968 119.274L96.5968 78.2122C94.1967 80.2025 82.6135 86.0685 76.1436 86.697C79.2742 88.2682 79.2742 94.0295 79.2742 99.4765L79.1699 107.123C79.1699 119.903 75.1001 127.759 70.0911 127.759C65.0822 127.759 63.4125 120.322 63.4125 114.456L63.4125 78.2122C61.0124 80.2025 49.4292 86.0685 42.9593 86.697C45.8812 88.2682 45.8812 94.8675 45.8812 100.315L45.8812 111.418C45.8812 128.073 54.9599 132.787 62.7864 132.787C70.5086 132.787 76.7697 128.911 79.2742 121.579L79.2742 132.054L99.6231 132.054C96.8056 130.797 96.5968 124.721 96.5968 119.274Z" fill="#0066FF"/>
<path d="M155.401 106.076C155.401 86.9065 146.844 79.4692 137.557 79.4692C130.148 79.4692 124.617 84.0782 121.8 91.8298L121.8 78.2122C119.4 80.2025 107.816 86.0685 101.347 86.697C104.477 88.2683 104.477 94.0295 104.477 99.4765L104.477 135.511C104.477 140.958 104.164 146.614 101.347 148.5L124.826 148.5C121.904 147.033 121.8 140.958 121.8 135.511L121.8 120.427C124.617 128.178 129.835 132.787 136.618 132.787C147.053 132.787 155.401 125.35 155.401 106.076ZM122.217 106.076C122.217 93.2963 126.6 85.021 130.67 85.021C134.322 85.021 137.661 91.2013 137.661 106.076C137.661 121.055 134.322 127.235 130.67 127.235C126.6 127.235 122.217 118.96 122.217 106.076Z" fill="#0066FF"/>
</svg>
